<svg width="60" height="49" viewBox="0 0 60 49" fill="none" xmlns="http://www.w3.org/2000/svg">
<path d="M3.33366 49H24.667C25.3742 49 26.0525 48.7191 26.5526 48.219C27.0527 47.7189 27.3337 47.0406 27.3337 46.3334C27.3337 45.6261 27.0527 44.9478 26.5526 44.4477C26.0525 43.9476 25.3742 43.6667 24.667 43.6667H6.18966C6.83674 39.2262 9.05935 35.1666 12.4517 32.2291C15.844 29.2917 20.1796 27.6723 24.667 27.6667C27.8069 27.6939 30.8574 26.6218 33.2899 24.636C35.7223 22.6502 37.3833 19.876 37.985 16.7941C38.5868 13.7123 38.0913 10.517 36.5845 7.76209C35.0777 5.00718 32.6546 2.86626 29.735 1.71036C26.8154 0.554467 23.5835 0.45645 20.5992 1.4333C17.615 2.41015 15.0666 4.4003 13.3956 7.05884C11.7246 9.71738 11.0364 12.8767 11.4503 15.9894C11.8642 19.1021 13.354 21.9718 15.6617 24.1014C11.2355 25.8969 7.44504 28.9709 4.77421 32.9309C2.10338 36.8908 0.673436 41.5569 0.666992 46.3334C0.666992 47.0406 0.947944 47.7189 1.44804 48.219C1.94814 48.7191 2.62641 49 3.33366 49ZM24.667 6.33337C26.2492 6.33337 27.796 6.80256 29.1116 7.68161C30.4271 8.56066 31.4525 9.81009 32.058 11.2719C32.6635 12.7337 32.822 14.3422 32.5133 15.8941C32.2046 17.4459 31.4427 18.8714 30.3238 19.9902C29.205 21.109 27.7796 21.871 26.2277 22.1796C24.6759 22.4883 23.0673 22.3299 21.6055 21.7244C20.1437 21.1189 18.8943 20.0935 18.0152 18.7779C17.1362 17.4623 16.667 15.9156 16.667 14.3334C16.667 12.2116 17.5098 10.1768 19.0101 8.67651C20.5104 7.17622 22.5453 6.33337 24.667 6.33337ZM59.3337 35.6667C59.3337 36.3739 59.0527 37.0522 58.5526 37.5523C58.0525 38.0524 57.3742 38.3334 56.667 38.3334H48.667V46.3334C48.667 47.0406 48.386 47.7189 47.8859 48.219C47.3858 48.7191 46.7076 49 46.0003 49C45.2931 49 44.6148 48.7191 44.1147 48.219C43.6146 47.7189 43.3337 47.0406 43.3337 46.3334V38.3334H35.3337C34.6264 38.3334 33.9481 38.0524 33.448 37.5523C32.9479 37.0522 32.667 36.3739 32.667 35.6667C32.667 34.9595 32.9479 34.2812 33.448 33.7811C33.9481 33.281 34.6264 33 35.3337 33H43.3337V25C43.3337 24.2928 43.6146 23.6145 44.1147 23.1144C44.6148 22.6143 45.2931 22.3334 46.0003 22.3334C46.7076 22.3334 47.3858 22.6143 47.8859 23.1144C48.386 23.6145 48.667 24.2928 48.667 25V33H56.667C57.3742 33 58.0525 33.281 58.5526 33.7811C59.0527 34.2812 59.3337 34.9595 59.3337 35.6667Z" fill="#A09999"/>
</svg>
