<svg width="60" height="60" viewBox="0 0 60 60" fill="none" xmlns="http://www.w3.org/2000/svg">
<path d="M25.0003 52H24.5003V52.5C24.5003 53.9587 25.0798 55.3576 26.1112 56.3891C27.1427 57.4205 28.5416 58 30.0003 58C31.459 58 32.8579 57.4205 33.8894 56.3891C34.9208 55.3576 35.5003 53.9587 35.5003 52.5V52H35.0003H25.0003ZM7.22835 46.1488L7.69029 45.9575L7.22842 46.149C7.45565 46.6971 7.84028 47.1654 8.33369 47.4949C8.82706 47.8244 9.40704 48.0001 10.0003 48C10.0003 48 10.0004 48 10.0004 48H50.0003H50.0004C50.5936 47.9999 51.1735 47.8239 51.6668 47.4942C52.16 47.1646 52.5444 46.6961 52.7714 46.148C52.9984 45.5999 53.0578 44.9968 52.9421 44.4149C52.8264 43.833 52.5408 43.2986 52.1214 42.879L52.1213 42.8789L48.0003 38.7579V25V24.999C47.992 20.6753 46.429 16.4987 43.5965 13.2319C40.8587 10.0744 37.1117 7.97042 33.0003 7.27258V5C33.0003 4.20435 32.6842 3.44129 32.1216 2.87868C31.559 2.31607 30.7959 2 30.0003 2C29.2046 2 28.4416 2.31607 27.879 2.87868C27.3164 3.44129 27.0003 4.20435 27.0003 5V7.27258C22.8889 7.97042 19.1418 10.0744 16.4041 13.2319C13.5716 16.4987 12.0086 20.6753 12.0003 24.999V25V38.7579L7.87935 42.8788C7.87931 42.8789 7.87927 42.8789 7.87924 42.8789C7.4595 43.2985 7.17361 43.833 7.05774 44.4151C6.94186 44.9971 7.00123 45.6005 7.22835 46.1488ZM42.0003 40.0001C42.0005 40.74 42.2739 41.4516 42.7647 42H17.2359C17.7267 41.4516 18.0001 40.74 18.0003 40.0001V40V25C18.0003 21.8174 19.2646 18.7652 21.515 16.5147C23.7654 14.2643 26.8177 13 30.0003 13C33.1829 13 36.2351 14.2643 38.4856 16.5147C40.736 18.7652 42.0003 21.8174 42.0003 25V40V40.0001Z" fill="black" stroke="black"/>
</svg>
