<svg width="40" height="54" viewBox="0 0 40 54" fill="none" xmlns="http://www.w3.org/2000/svg">
<path d="M16.1718 36.8685L5.5 45.4164V6H34.5V45.4164L23.8282 36.8685L23.8282 36.8685L23.8225 36.864C22.6832 35.9785 21.4042 35.5287 20 35.5287C18.5958 35.5287 17.3168 35.9785 16.1775 36.864L16.1775 36.8639L16.1718 36.8685ZM39.2494 50.3485L39.25 50.3361V50.3237V3.625C39.25 2.95977 39.0317 2.37836 38.5767 1.92332C38.1216 1.46828 37.5402 1.25 36.875 1.25H3.125C2.45977 1.25 1.87836 1.46828 1.42332 1.92332C0.968282 2.37836 0.75 2.95977 0.75 3.625V50.3237V50.3361L0.750614 50.3485C0.773572 50.8114 0.893985 51.2348 1.13053 51.5995C1.36755 51.9648 1.7035 52.2439 2.11509 52.444C2.52758 52.6446 2.9554 52.7351 3.38912 52.69C3.82194 52.6449 4.22564 52.4684 4.59687 52.19L4.60293 52.1855L4.60885 52.1807L19.1355 40.5819C19.1362 40.5813 19.1369 40.5808 19.1375 40.5803C19.4037 40.3735 19.6864 40.2769 20 40.2769C20.3136 40.2769 20.5963 40.3735 20.8625 40.5803C20.8631 40.5808 20.8638 40.5813 20.8645 40.5819L35.3911 52.1807L35.3971 52.1855L35.4031 52.19C35.7744 52.4684 36.1781 52.6449 36.6109 52.69C37.0446 52.7351 37.4724 52.6446 37.8849 52.444C38.2965 52.2439 38.6325 51.9648 38.8695 51.5995C39.106 51.2348 39.2264 50.8114 39.2494 50.3485Z" fill="black" stroke="black"/>
</svg>
