<svg width="44" height="56" viewBox="0 0 44 56" fill="none" xmlns="http://www.w3.org/2000/svg">
<path d="M8 52H36C37.3333 52 38 52.6667 38 54C38 55.3333 37.3333 56 36 56H8C6.66667 56 6 55.3333 6 54C6 52.6667 6.66667 52 8 52ZM40 22C39.8747 16.916 38.114 12.6767 34.718 9.282C31.322 5.88733 27.0827 4.12667 22 4C16.916 4.12533 12.6767 5.886 9.282 9.282C5.88733 12.678 4.12667 16.9173 4 22C4 25.708 5.48933 29.9473 8.468 34.718C11.4467 39.4887 15.9573 44.77 22 50.562C28.0413 44.77 32.552 39.4887 35.532 34.718C38.512 29.9473 40.0013 25.708 40 22ZM22 56C7.33333 42.6667 0 31.3333 0 22C0.166667 15.7493 2.31267 10.562 6.438 6.438C10.5633 2.314 15.7507 0.168 22 0C28.2507 0.166667 33.438 2.31267 37.562 6.438C41.686 10.5633 43.832 15.7507 44 22C44 31.3333 36.6667 42.6667 22 56ZM22 28C23.708 27.9587 25.1247 27.3753 26.25 26.25C27.3753 25.1247 27.938 23.708 27.938 22C27.938 20.292 27.3753 18.8753 26.25 17.75C25.1247 16.6247 23.708 16.062 22 16.062C20.292 16.062 18.8753 16.6247 17.75 17.75C16.6247 18.8753 16.062 20.292 16.062 22C16.062 23.708 16.6247 25.1247 17.75 26.25C18.8753 27.3753 20.292 27.9587 22 28ZM22 32C19.1667 31.916 16.8127 30.9367 14.938 29.062C13.0633 27.1873 12.084 24.8333 12 22C12.084 19.1667 13.0633 16.8127 14.938 14.938C16.8127 13.0633 19.1667 12.084 22 12C24.8333 12.084 27.1873 13.0633 29.062 14.938C30.9367 16.8127 31.916 19.1667 32 22C31.916 24.8333 30.9367 27.1873 29.062 29.062C27.1873 30.9367 24.8333 31.916 22 32Z" fill="#A09999" fill-opacity="0.96"/>
</svg>

