<svg width="60" height="60" viewBox="0 0 60 60" fill="none" xmlns="http://www.w3.org/2000/svg">
<path d="M49.325 41.6575C50.5622 40.1259 51.2411 38.2188 51.25 36.25C51.25 33.9294 50.3281 31.7038 48.6872 30.0628C47.0462 28.4219 44.8206 27.5 42.5 27.5C40.1794 27.5 37.9538 28.4219 36.3128 30.0628C34.6719 31.7038 33.75 33.9294 33.75 36.25C33.7589 38.2188 34.4378 40.1259 35.675 41.6575C33.3818 42.8346 31.4281 44.5791 30 46.725C28.5719 44.5791 26.6182 42.8346 24.325 41.6575C25.5622 40.1259 26.2411 38.2188 26.25 36.25C26.25 33.9294 25.3281 31.7038 23.6872 30.0628C22.0462 28.4219 19.8206 27.5 17.5 27.5C15.1794 27.5 12.9538 28.4219 11.3128 30.0628C9.67187 31.7038 8.75 33.9294 8.75 36.25C8.75888 38.2188 9.4378 40.1259 10.675 41.6575C8.21642 42.9137 6.15225 44.8241 4.70984 47.1783C3.26743 49.5325 2.50274 52.2391 2.5 55C2.5 55.663 2.76339 56.2989 3.23223 56.7678C3.70107 57.2366 4.33696 57.5 5 57.5H55C55.663 57.5 56.2989 57.2366 56.7678 56.7678C57.2366 56.2989 57.5 55.663 57.5 55C57.4973 52.2391 56.7326 49.5325 55.2902 47.1783C53.8478 44.8241 51.7836 42.9137 49.325 41.6575ZM17.5 32.5C18.2417 32.5 18.9667 32.7199 19.5834 33.132C20.2001 33.544 20.6807 34.1297 20.9645 34.8149C21.2484 35.5002 21.3226 36.2542 21.1779 36.9816C21.0333 37.709 20.6761 38.3772 20.1517 38.9017C19.6272 39.4261 18.959 39.7833 18.2316 39.9279C17.5042 40.0726 16.7502 39.9984 16.0649 39.7145C15.3797 39.4307 14.794 38.9501 14.382 38.3334C13.9699 37.7167 13.75 36.9917 13.75 36.25C13.75 35.2554 14.1451 34.3016 14.8483 33.5983C15.5516 32.8951 16.5054 32.5 17.5 32.5V32.5ZM7.815 52.5C8.36749 50.3512 9.6189 48.4471 11.3723 47.0876C13.1256 45.728 15.2813 44.9901 17.5 44.9901C19.7187 44.9901 21.8744 45.728 23.6278 47.0876C25.3811 48.4471 26.6325 50.3512 27.185 52.5H7.815ZM42.5 32.5C43.2417 32.5 43.9667 32.7199 44.5834 33.132C45.2001 33.544 45.6807 34.1297 45.9645 34.8149C46.2484 35.5002 46.3226 36.2542 46.1779 36.9816C46.0333 37.709 45.6761 38.3772 45.1516 38.9017C44.6272 39.4261 43.959 39.7833 43.2316 39.9279C42.5042 40.0726 41.7502 39.9984 41.0649 39.7145C40.3797 39.4307 39.794 38.9501 39.382 38.3334C38.9699 37.7167 38.75 36.9917 38.75 36.25C38.75 35.2554 39.1451 34.3016 39.8483 33.5983C40.5516 32.8951 41.5054 32.5 42.5 32.5ZM32.815 52.5C33.3675 50.3512 34.6189 48.4471 36.3722 47.0876C38.1256 45.728 40.2813 44.9901 42.5 44.9901C44.7187 44.9901 46.8744 45.728 48.6277 47.0876C50.3811 48.4471 51.6325 50.3512 52.185 52.5H32.815ZM15 5V20C15 20.663 15.2634 21.2989 15.7322 21.7678C16.2011 22.2366 16.837 22.5 17.5 22.5H24.6625L28.08 26.6025C28.3146 26.8839 28.6082 27.1102 28.94 27.2655C29.2718 27.4209 29.6337 27.5014 30 27.5014C30.3663 27.5014 30.7282 27.4209 31.06 27.2655C31.3918 27.1102 31.6854 26.8839 31.92 26.6025L35.3375 22.5H42.5C43.163 22.5 43.7989 22.2366 44.2678 21.7678C44.7366 21.2989 45 20.663 45 20V5C45 4.33696 44.7366 3.70107 44.2678 3.23223C43.7989 2.76339 43.163 2.5 42.5 2.5H17.5C16.837 2.5 16.2011 2.76339 15.7322 3.23223C15.2634 3.70107 15 4.33696 15 5V5ZM20 7.5H40V17.5H34.1675C33.8008 17.4995 33.4386 17.5796 33.1063 17.7347C32.7741 17.8898 32.48 18.1161 32.245 18.3975L30 21.095L27.75 18.3975C27.5155 18.1167 27.2223 17.8908 26.8909 17.7357C26.5596 17.5807 26.1983 17.5002 25.8325 17.5H20V7.5Z" fill="black"/>
</svg>
