<svg width="29" height="28" viewBox="0 0 29 28" fill="none" xmlns="http://www.w3.org/2000/svg">
<path d="M26.128 27.6783L16.603 18.1516C12.3658 21.164 6.52704 20.4272 3.1711 16.4565C-0.184844 12.4858 0.0615736 6.60593 3.73798 2.92995C7.41341 -0.747638 13.2939 -0.995121 17.2653 2.36064C21.2367 5.71641 21.974 11.5557 18.9613 15.7933L28.4863 25.32L26.1296 27.6766L26.128 27.6783ZM10.808 3.33326C7.64748 3.33255 4.92079 5.55108 4.27877 8.64568C3.63674 11.7403 5.25583 14.8604 8.15577 16.117C11.0557 17.3736 14.4395 16.4213 16.2584 13.8367C18.0773 11.2521 17.8314 7.74548 15.6696 5.43995L16.678 6.43995L15.5413 5.30662L15.5213 5.28662C14.2743 4.03191 12.577 3.3285 10.808 3.33326Z" fill="#2E3A59"/>
</svg>
