<svg width="48" height="60" viewBox="0 0 48 60" fill="none" xmlns="http://www.w3.org/2000/svg">
<path d="M5.33333 54.0001V55.3334C5.33333 56.3943 5.75476 57.4117 6.50491 58.1618C7.25505 58.912 8.27247 59.3334 9.33333 59.3334C10.3942 59.3334 11.4116 58.912 12.1618 58.1618C12.9119 57.4117 13.3333 56.3943 13.3333 55.3334V54.0001H34.6667V55.3334C34.6667 56.3943 35.0881 57.4117 35.8382 58.1618C36.5884 58.912 37.6058 59.3334 38.6667 59.3334C39.7275 59.3334 40.7449 58.912 41.4951 58.1618C42.2452 57.4117 42.6667 56.3943 42.6667 55.3334V54.0001C44.0812 54.0001 45.4377 53.4382 46.4379 52.438C47.4381 51.4378 48 50.0812 48 48.6667V35.3334C47.993 33.5686 47.4026 31.8556 46.3208 30.4613C45.2389 29.0669 43.7264 28.0694 42.0187 27.6241L37.1973 13.1574C37.0204 12.6262 36.6808 12.1641 36.2265 11.8368C35.7723 11.5094 35.2266 11.3333 34.6667 11.3334H13.3333C12.7734 11.3333 12.2277 11.5094 11.7735 11.8368C11.3192 12.1641 10.9796 12.6262 10.8027 13.1574L5.98133 27.6241C4.27361 28.0694 2.76107 29.0669 1.67924 30.4613C0.597408 31.8556 0.00701654 33.5686 0 35.3334V48.6667C0 50.0812 0.561903 51.4378 1.5621 52.438C2.56229 53.4382 3.91885 54.0001 5.33333 54.0001ZM15.256 16.6667H32.744L36.3013 27.3334H11.6987L15.256 16.6667ZM5.33333 35.3334C5.33333 34.6262 5.61429 33.9479 6.11438 33.4478C6.61448 32.9477 7.29276 32.6667 8 32.6667H40C40.7072 32.6667 41.3855 32.9477 41.8856 33.4478C42.3857 33.9479 42.6667 34.6262 42.6667 35.3334V48.6667H5.33333V35.3334ZM16 3.33341C16 2.62617 16.281 1.94789 16.781 1.4478C17.2811 0.947699 17.9594 0.666748 18.6667 0.666748H29.3333C30.0406 0.666748 30.7189 0.947699 31.219 1.4478C31.719 1.94789 32 2.62617 32 3.33341C32 4.04066 31.719 4.71894 31.219 5.21903C30.7189 5.71913 30.0406 6.00008 29.3333 6.00008H18.6667C17.9594 6.00008 17.2811 5.71913 16.781 5.21903C16.281 4.71894 16 4.04066 16 3.33341ZM13.3333 40.6667C13.3333 41.1942 13.1769 41.7097 12.8839 42.1483C12.5909 42.5868 12.1744 42.9286 11.6872 43.1304C11.1999 43.3323 10.6637 43.3851 10.1464 43.2822C9.62914 43.1793 9.15399 42.9253 8.78105 42.5524C8.40811 42.1794 8.15413 41.7043 8.05124 41.187C7.94835 40.6697 8.00115 40.1335 8.20299 39.6463C8.40482 39.159 8.74662 38.7425 9.18515 38.4495C9.62368 38.1565 10.1392 38.0001 10.6667 38.0001C11.3739 38.0001 12.0522 38.281 12.5523 38.7811C13.0524 39.2812 13.3333 39.9595 13.3333 40.6667ZM40 40.6667C40 41.1942 39.8436 41.7097 39.5506 42.1483C39.2576 42.5868 38.8411 42.9286 38.3538 43.1304C37.8666 43.3323 37.3304 43.3851 36.8131 43.2822C36.2958 43.1793 35.8207 42.9253 35.4477 42.5524C35.0748 42.1794 34.8208 41.7043 34.7179 41.187C34.615 40.6697 34.6678 40.1335 34.8697 39.6463C35.0715 39.159 35.4133 38.7425 35.8518 38.4495C36.2903 38.1565 36.8059 38.0001 37.3333 38.0001C38.0406 38.0001 38.7189 38.281 39.219 38.7811C39.7191 39.2812 40 39.9595 40 40.6667Z" fill="#A09999"/>
</svg>
