<svg width="334" height="250" viewBox="0 0 334 250" fill="none" xmlns="http://www.w3.org/2000/svg">
<path d="M283.666 83.3333H278.333L257.5 31.3333C253.779 22.0876 247.38 14.1647 239.124 8.58169C230.868 2.99867 221.133 0.0102343 211.166 -3.9178e-05H111.166C99.5878 -0.0331782 88.3567 3.95315 79.3899 11.2785C70.4232 18.6039 64.2767 28.8142 61.9997 40.1666L53.333 83.3333H50.333C37.0722 83.3333 24.3545 88.6011 14.9777 97.978C5.60085 107.355 0.333008 120.072 0.333008 133.333V183.333C0.333008 187.754 2.08895 191.993 5.21456 195.118C8.34017 198.244 12.5794 200 16.9997 200H33.6663C33.6663 213.261 38.9342 225.979 48.311 235.355C57.6878 244.732 70.4055 250 83.6663 250C96.9272 250 109.645 244.732 119.022 235.355C128.399 225.979 133.666 213.261 133.666 200H200.333C200.333 213.261 205.601 225.979 214.978 235.355C224.354 244.732 237.072 250 250.333 250C263.594 250 276.312 244.732 285.688 235.355C295.065 225.979 300.333 213.261 300.333 200H317C321.42 200 325.659 198.244 328.785 195.118C331.91 191.993 333.666 187.754 333.666 183.333V133.333C333.666 120.072 328.398 107.355 319.022 97.978C309.645 88.6011 296.927 83.3333 283.666 83.3333V83.3333ZM183.666 33.3333H211.166C214.476 33.3632 217.702 34.3779 220.432 36.2478C223.163 38.1178 225.275 40.7585 226.5 43.8333L242.333 83.3333H183.666V33.3333ZM94.6663 46.6666C95.4455 42.8454 97.5401 39.4183 100.585 36.9821C103.631 34.5459 107.434 33.2547 111.333 33.3333H150.333V83.3333H87.333L94.6663 46.6666ZM83.6663 216.667C80.37 216.667 77.1477 215.689 74.4068 213.858C71.666 212.026 69.5298 209.423 68.2683 206.378C67.0069 203.333 66.6768 199.981 67.3199 196.748C67.963 193.515 69.5504 190.546 71.8812 188.215C74.2121 185.884 77.1818 184.297 80.4148 183.654C83.6478 183.01 86.999 183.341 90.0444 184.602C93.0898 185.863 95.6928 188 97.5242 190.74C99.3555 193.481 100.333 196.704 100.333 200C100.333 204.42 98.5771 208.659 95.4514 211.785C92.3258 214.911 88.0866 216.667 83.6663 216.667ZM250.333 216.667C247.037 216.667 243.814 215.689 241.073 213.858C238.333 212.026 236.196 209.423 234.935 206.378C233.674 203.333 233.343 199.981 233.987 196.748C234.63 193.515 236.217 190.546 238.548 188.215C240.879 185.884 243.848 184.297 247.081 183.654C250.314 183.01 253.666 183.341 256.711 184.602C259.756 185.863 262.359 188 264.191 190.74C266.022 193.481 267 196.704 267 200C267 204.42 265.244 208.659 262.118 211.785C258.993 214.911 254.753 216.667 250.333 216.667ZM300.333 166.667H287.333C282.647 161.511 276.934 157.391 270.563 154.572C264.191 151.753 257.3 150.297 250.333 150.297C243.366 150.297 236.475 151.753 230.103 154.572C223.732 157.391 218.019 161.511 213.333 166.667H120.666C115.98 161.511 110.268 157.391 103.896 154.572C97.5243 151.753 90.6338 150.297 83.6663 150.297C76.6989 150.297 69.8083 151.753 63.4366 154.572C57.0649 157.391 51.3527 161.511 46.6663 166.667H33.6663V133.333C33.6663 128.913 35.4223 124.674 38.5479 121.548C41.6735 118.423 45.9127 116.667 50.333 116.667H283.666C288.087 116.667 292.326 118.423 295.451 121.548C298.577 124.674 300.333 128.913 300.333 133.333V166.667Z" fill="black"/>
</svg>
