<svg width="368" height="317" viewBox="0 0 368 317" fill="none" xmlns="http://www.w3.org/2000/svg">
<path d="M367.334 250.333C367.334 237.148 363.424 224.259 356.098 213.295C348.773 202.332 338.361 193.787 326.179 188.741C313.997 183.695 300.593 182.375 287.661 184.948C274.729 187.52 262.85 193.869 253.527 203.193C244.203 212.516 237.854 224.395 235.281 237.327C232.709 250.259 234.029 263.664 239.075 275.845C244.121 288.027 252.666 298.439 263.629 305.765C274.592 313.09 287.482 317 300.667 317C318.348 317 335.305 309.976 347.807 297.474C360.31 284.971 367.334 268.014 367.334 250.333ZM300.667 283.667C294.074 283.667 287.63 281.712 282.148 278.049C276.666 274.386 272.394 269.18 269.871 263.089C267.348 256.999 266.688 250.296 267.974 243.83C269.26 237.364 272.435 231.425 277.097 226.763C281.759 222.101 287.698 218.927 294.164 217.64C300.63 216.354 307.332 217.014 313.423 219.537C319.514 222.06 324.72 226.333 328.383 231.814C332.045 237.296 334 243.741 334 250.333C334 259.174 330.488 267.652 324.237 273.903C317.986 280.155 309.508 283.667 300.667 283.667ZM67.3337 317C80.5191 317 93.4084 313.09 104.372 305.765C115.335 298.439 123.88 288.027 128.926 275.845C133.971 263.664 135.292 250.259 132.719 237.327C130.147 224.395 123.798 212.516 114.474 203.193C105.151 193.869 93.2718 187.52 80.3397 184.948C67.4076 182.375 54.0032 183.695 41.8214 188.741C29.6397 193.787 19.2278 202.332 11.9024 213.295C4.57692 224.259 0.666992 237.148 0.666992 250.333C0.666992 268.014 7.69078 284.971 20.1932 297.474C32.6956 309.976 49.6526 317 67.3337 317ZM67.3337 217C73.9264 217 80.371 218.955 85.8527 222.618C91.3343 226.28 95.6067 231.486 98.1297 237.577C100.653 243.668 101.313 250.37 100.027 256.836C98.7403 263.302 95.5656 269.242 90.9039 273.903C86.2421 278.565 80.3027 281.74 73.8367 283.026C67.3706 284.312 60.6684 283.652 54.5775 281.129C48.4867 278.606 43.2807 274.334 39.618 268.852C35.9553 263.371 34.0003 256.926 34.0003 250.333C34.0003 241.493 37.5122 233.014 43.7634 226.763C50.0146 220.512 58.4931 217 67.3337 217V217ZM245.784 71.8833L290.9 117H317.334C321.754 117 325.993 118.756 329.119 121.882C332.244 125.007 334 129.246 334 133.667C334 138.087 332.244 142.326 329.119 145.452C325.993 148.577 321.754 150.333 317.334 150.333H284C279.58 150.332 275.342 148.576 272.217 145.45L234 107.233L174.234 167L195.784 188.55C198.909 191.675 200.666 195.913 200.667 200.333V267C200.667 271.42 198.911 275.659 195.785 278.785C192.66 281.911 188.421 283.667 184 283.667C179.58 283.667 175.341 281.911 172.215 278.785C169.09 275.659 167.334 271.42 167.334 267V207.233L138.884 178.783C135.759 175.658 134.004 171.419 134.004 167C134.004 162.581 135.759 158.342 138.884 155.217L222.217 71.8833C225.342 68.7588 229.581 67.0035 234 67.0035C238.42 67.0035 242.658 68.7588 245.784 71.8833ZM284 66.9999C277.408 66.9999 270.963 65.045 265.481 61.3823C260 57.7195 255.727 52.5136 253.204 46.4227C250.681 40.3319 250.021 33.6296 251.307 27.1636C252.594 20.6976 255.768 14.7581 260.43 10.0964C265.092 5.43462 271.031 2.25993 277.497 0.973758C283.963 -0.312416 290.666 0.347695 296.756 2.87062C302.847 5.39354 308.053 9.66595 311.716 15.1476C315.379 20.6292 317.334 27.0739 317.334 33.6666C317.334 42.5072 313.822 50.9856 307.571 57.2368C301.319 63.488 292.841 66.9999 284 66.9999Z" fill="black"/>
</svg>
